<svg xmlns="http://www.w3.org/2000/svg" width="1600" height="900" viewBox="0 0 1600 900" role="img" aria-labelledby="title desc"><title id="title">ZAZU / Una operación conectada</title><desc id="desc">Arquitectura verificada en los repositorios · Demo pública con datos ficticios</desc><defs><marker id="arrow" viewBox="0 0 10 10" refX="8" refY="5" markerWidth="7" markerHeight="7" orient="auto-start-reverse"><path d="M0 0L10 5L0 10" fill="#8bac79"/></marker></defs><rect width="1600" height="900" fill="#0c120e"/><g font-family="Arial, sans-serif" fill="#e5eee6"><text x="70" y="77" font-size="33" font-weight="600">ZAZU / Una operación conectada</text><text x="70" y="115" font-size="17" fill="#9bae9e">Arquitectura verificada en los repositorios · Demo pública con datos ficticios</text><path d="M70 146H1530" stroke="#344439"/><g><rect x="70" y="210" width="305" height="180" rx="12" fill="#131a16" stroke="#344439"/><text x="94" y="244" fill="#b6f36b" font-size="14" font-family="monospace">01 / CHANNEL</text><text x="94" y="285" font-size="23" font-weight="600">Cliente</text><text x="94" y="323" font-size="17" fill="#a9bbad">Conversación de WhatsApp</text></g><g><rect x="425" y="210" width="405" height="180" rx="12" fill="#131a16" stroke="#344439"/><text x="449" y="244" fill="#b6f36b" font-size="14" font-family="monospace">02 / AUTOMATION</text><text x="449" y="285" font-size="23" font-weight="600">Bot de WhatsApp</text><text x="449" y="323" font-size="17" fill="#a9bbad">Node.js · whatsapp-web.js</text><text x="449" y="352" font-size="17" fill="#a9bbad">Menús / estados / selecciones</text></g><g><rect x="70" y="450" width="760" height="180" rx="12" fill="#131a16" stroke="#344439"/><text x="94" y="484" fill="#b6f36b" font-size="14" font-family="monospace">03 / FRONTEND</text><text x="94" y="525" font-size="23" font-weight="600">Workspace administrativo</text><text x="94" y="563" font-size="17" fill="#a9bbad">React · Redux · Axios</text><text x="94" y="592" font-size="17" fill="#a9bbad">CRM / agenda / catálogo / reportes</text></g><g><rect x="910" y="210" width="620" height="215" rx="12" fill="#13291c" stroke="#98ce69"/><text x="934" y="244" fill="#b6f36b" font-size="14" font-family="monospace">04 / API</text><text x="934" y="285" font-size="23" font-weight="600">Backend compartido</text><text x="934" y="323" font-size="17" fill="#a9bbad">Node.js · Express · Mongoose</text><text x="934" y="352" font-size="17" fill="#a9bbad">Catálogo / horarios / reservas</text><text x="934" y="381" font-size="17" fill="#a9bbad">Clientes / interacciones / CRM</text></g><g><rect x="910" y="485" width="620" height="180" rx="12" fill="#131a16" stroke="#344439"/><text x="934" y="519" fill="#b6f36b" font-size="14" font-family="monospace">05 / DATA</text><text x="934" y="560" font-size="23" font-weight="600">Registros del negocio</text><text x="934" y="598" font-size="17" fill="#a9bbad">MongoDB</text><text x="934" y="627" font-size="17" fill="#a9bbad">Clientes · catálogo · reservas</text><text x="934" y="656" font-size="17" fill="#a9bbad">Interacciones · etapas del CRM</text></g><g stroke="#8bac79" stroke-width="2" fill="none" marker-end="url(#arrow)"><path d="M375 300H415"/><path d="M840 300H900" marker-start="url(#arrow)"/><path d="M830 540H866V367H900" marker-start="url(#arrow)"/><path d="M1220 435V475" marker-start="url(#arrow)"/></g><text x="905" y="465" font-size="13" fill="#8bac79">API / contexto compartido</text><text x="70" y="708" font-size="13" font-family="monospace" letter-spacing="2" fill="#b6f36b">RECORRIDO DE UN CLIENTE</text><rect x="70" y="737" width="335" height="63" rx="6" fill="#19251c" stroke="#344439"/><text x="88" y="776" font-size="18"><tspan fill="#b6f36b">01</tspan>  Consulta servicios</text><text x="420" y="776" font-size="23" fill="#8bac79">→</text><rect x="445" y="737" width="335" height="63" rx="6" fill="#19251c" stroke="#344439"/><text x="463" y="776" font-size="18"><tspan fill="#b6f36b">02</tspan>  Elige un horario</text><text x="795" y="776" font-size="23" fill="#8bac79">→</text><rect x="820" y="737" width="335" height="63" rx="6" fill="#19251c" stroke="#344439"/><text x="838" y="776" font-size="18"><tspan fill="#b6f36b">03</tspan>  Confirma la reserva</text><text x="1170" y="776" font-size="23" fill="#8bac79">→</text><rect x="1195" y="737" width="335" height="63" rx="6" fill="#19251c" stroke="#344439"/><text x="1213" y="776" font-size="18"><tspan fill="#b6f36b">04</tspan>  Equipo consulta CRM</text><text x="70" y="854" font-size="16" fill="#9bae9e">La demo del bot usa reglas explícitas y no llama a IA. Las integraciones reales quedan fuera de la demo.</text></g></svg>